<svg width="385" height="214" viewBox="0 0 385 214" fill="none" xmlns="http://www.w3.org/2000/svg">
<rect x="9.48438" y="103.737" width="4.74173" height="13.216" fill="#142251"/>
<rect x="18.9668" y="107.042" width="4.74173" height="6.60801" fill="#142251"/>
<rect y="107.042" width="4.74173" height="6.60801" fill="#142251"/>
<rect x="28.4512" y="107.042" width="4.74173" height="6.60801" fill="#142251"/>
<rect x="37.9336" y="107.042" width="4.74173" height="6.60801" fill="#142251"/>
<rect x="47.418" y="103.737" width="4.74173" height="13.216" fill="#142251"/>
<rect x="56.9004" y="100.433" width="4.74173" height="19.824" fill="#142251"/>
<rect x="66.3848" y="74.0015" width="4.74174" height="72.6881" fill="#142251"/>
<rect x="75.8672" y="77.3052" width="4.74173" height="66.0801" fill="#142251"/>
<rect x="85.3516" y="90.5212" width="4.74173" height="39.6481" fill="#142251"/>
<rect x="94.834" y="57.4814" width="4.74173" height="105.728" fill="#142251"/>
<rect x="104.318" y="67.3933" width="4.74172" height="85.9041" fill="#142251"/>
<rect x="113.801" y="17.8333" width="4.74174" height="185.024" fill="#142251"/>
<rect x="123.285" y="27.7454" width="4.74173" height="165.2" fill="#142251"/>
<rect x="132.768" y="44.2654" width="4.74173" height="132.16" fill="#142251"/>
<rect x="142.252" y="34.3533" width="4.74174" height="151.984" fill="#142251"/>
<rect x="151.736" y="64.0894" width="4.74171" height="92.5121" fill="#142251"/>
<rect x="161.219" y="83.9133" width="4.74173" height="52.8641" fill="#142251"/>
<rect x="170.703" y="93.8252" width="4.74173" height="33.04" fill="#142251"/>
<rect x="180.186" y="80.6094" width="4.74173" height="59.4721" fill="#142251"/>
<rect x="189.67" y="93.8252" width="4.74173" height="33.04" fill="#142251"/>
<rect x="208.637" y="77.3052" width="4.74173" height="66.0801" fill="#AFB4C4"/>
<rect x="218.119" y="97.1294" width="4.74171" height="26.432" fill="#AFB4C4"/>
<rect x="227.604" y="90.5212" width="4.74173" height="39.6481" fill="#AFB4C4"/>
<rect x="237.086" y="93.8252" width="4.74173" height="33.04" fill="#AFB4C4"/>
<rect x="246.57" y="97.1294" width="4.74173" height="26.432" fill="#AFB4C4"/>
<rect x="256.053" y="103.737" width="4.74173" height="13.216" fill="#AFB4C4"/>
<rect x="265.537" y="100.433" width="4.74173" height="19.824" fill="#AFB4C4"/>
<rect x="275.02" y="97.1294" width="4.74173" height="26.432" fill="#AFB4C4"/>
<rect x="284.504" y="107.042" width="4.74173" height="6.60801" fill="#AFB4C4"/>
<rect x="293.986" y="103.737" width="4.74175" height="13.216" fill="#AFB4C4"/>
<rect x="303.471" y="103.737" width="4.74173" height="13.216" fill="#AFB4C4"/>
<rect x="312.955" y="107.042" width="4.74173" height="6.60801" fill="#AFB4C4"/>
<rect x="322.438" y="103.737" width="4.74173" height="13.216" fill="#AFB4C4"/>
<rect x="331.922" y="107.042" width="4.74173" height="6.60801" fill="#AFB4C4"/>
<rect x="341.404" y="107.042" width="4.74173" height="6.60801" fill="#AFB4C4"/>
<rect x="350.889" y="107.042" width="4.74173" height="6.60801" fill="#AFB4C4"/>
<rect x="360.371" y="107.042" width="4.74173" height="6.60801" fill="#AFB4C4"/>
<rect x="369.855" y="107.042" width="4.74173" height="6.60801" fill="#AFB4C4"/>
<rect x="379.338" y="107.042" width="4.74173" height="6.60801" fill="#AFB4C4"/>
<rect x="199.152" y="16.2573" width="4.74173" height="191.632" fill="#E4E7F1"/>
<circle cx="202.111" cy="16.6444" r="9.51111" fill="#E4E7F1"/>
<circle cx="202.111" cy="204.489" r="9.51111" fill="#E4E7F1"/>
<path fill-rule="evenodd" clip-rule="evenodd" d="M323.761 1.00941e-06L330.042 2.00344e-06C331.481 2.00344e-06 332.648 1.16665 332.648 2.60579C332.648 4.04492 331.481 5.21157 330.042 5.21157H323.869C321.491 5.21157 319.864 5.2136 318.605 5.31652C317.375 5.41696 316.727 5.60034 316.264 5.8364C315.185 6.38601 314.308 7.26301 313.758 8.34169C313.522 8.80498 313.339 9.45356 313.238 10.6829C313.135 11.9426 313.133 13.5694 313.133 15.9474V22.1202C313.133 23.5593 311.967 24.726 310.528 24.726C309.089 24.726 307.922 23.5593 307.922 22.1202L307.922 15.8388C307.922 13.5961 307.922 11.7556 308.044 10.2585C308.171 8.70688 308.442 7.29611 309.115 5.97569C310.164 3.91639 311.838 2.24212 313.898 1.19286C315.218 0.520071 316.629 0.249033 318.18 0.122261C319.677 -5.63955e-05 321.518 -3.0551e-05 323.761 1.00941e-06ZM373.328 5.31652C372.068 5.2136 370.441 5.21157 368.063 5.21157H361.891C360.451 5.21157 359.285 4.04492 359.285 2.60579C359.285 1.16665 360.451 2.00344e-06 361.891 2.00344e-06L368.172 1.00941e-06C370.415 -3.0551e-05 372.255 -5.63955e-05 373.752 0.122261C375.304 0.249033 376.715 0.520071 378.035 1.19286C380.094 2.24212 381.769 3.91639 382.818 5.97569C383.491 7.29611 383.762 8.70688 383.888 10.2585C384.011 11.7556 384.011 13.596 384.011 15.8388V22.1202C384.011 23.5593 382.844 24.726 381.405 24.726C379.966 24.726 378.799 23.5593 378.799 22.1202V15.9474C378.799 13.5694 378.797 11.9426 378.694 10.6829C378.594 9.45356 378.41 8.80498 378.174 8.34169C377.625 7.26301 376.748 6.38602 375.669 5.8364C375.206 5.60034 374.557 5.41696 373.328 5.31652ZM310.528 51.3629C311.967 51.3629 313.133 52.5295 313.133 53.9687V60.1415C313.133 62.5195 313.135 64.1463 313.238 65.406C313.339 66.6353 313.522 67.2839 313.758 67.7472C314.308 68.8259 315.185 69.7029 316.264 70.2525C316.727 70.4885 317.375 70.6719 318.605 70.7724C319.864 70.8753 321.491 70.8773 323.869 70.8773H330.042C331.481 70.8773 332.648 72.044 332.648 73.4831C332.648 74.9222 331.481 76.0889 330.042 76.0889H323.761C321.518 76.0889 319.677 76.0889 318.18 75.9666C316.629 75.8398 315.218 75.5688 313.898 74.896C311.838 73.8468 310.164 72.1725 309.115 70.1132C308.442 68.7928 308.171 67.382 308.044 65.8304C307.922 64.3333 307.922 62.4928 307.922 60.2501L307.922 53.9687C307.922 52.5295 309.089 51.3629 310.528 51.3629ZM381.405 51.3629C382.844 51.3629 384.011 52.5295 384.011 53.9687V60.2501C384.011 62.4928 384.011 64.3333 383.888 65.8304C383.762 67.382 383.491 68.7928 382.818 70.1132C381.769 72.1725 380.094 73.8468 378.035 74.896C376.715 75.5688 375.304 75.8398 373.752 75.9666C372.255 76.0889 370.415 76.0889 368.172 76.0889H361.891C360.451 76.0889 359.285 74.9222 359.285 73.4831C359.285 72.044 360.451 70.8773 361.891 70.8773H368.063C370.441 70.8773 372.068 70.8753 373.328 70.7724C374.557 70.6719 375.206 70.4885 375.669 70.2525C376.748 69.7029 377.625 68.8259 378.174 67.7472C378.41 67.2839 378.594 66.6353 378.694 65.406C378.797 64.1463 378.799 62.5195 378.799 60.1415V53.9687C378.799 52.5295 379.966 51.3629 381.405 51.3629Z" fill="#E4E7F1"/>
<path d="M346.874 44.926C349.81 44.926 352.19 42.546 352.19 39.6102C352.19 36.6743 349.81 34.2943 346.874 34.2943C343.938 34.2943 341.558 36.6743 341.558 39.6102C341.558 42.546 343.938 44.926 346.874 44.926Z" fill="#AFB4C4"/>
<path fill-rule="evenodd" clip-rule="evenodd" d="M332.698 28.5355H337.432C338.372 28.5355 339.273 28.1621 339.938 27.4975L340.963 26.4726C341.628 25.8079 342.529 25.4346 343.469 25.4346H349.836C350.776 25.4346 351.677 25.8079 352.342 26.4726L353.367 27.4975C354.031 28.1621 354.933 28.5355 355.872 28.5355H360.163C362.121 28.5355 363.707 30.1221 363.707 32.0794V48.4699C363.707 50.4271 362.121 52.0138 360.163 52.0138H332.698C330.741 52.0138 329.154 50.4271 329.154 48.4699V32.0794C329.154 30.1221 330.741 28.5355 332.698 28.5355ZM355.734 39.6102C355.734 44.5033 351.767 48.4699 346.874 48.4699C341.981 48.4699 338.014 44.5033 338.014 39.6102C338.014 34.7171 341.981 30.7504 346.874 30.7504C351.767 30.7504 355.734 34.7171 355.734 39.6102Z" fill="#AFB4C4"/>
</svg>
