<svg width="505" height="381" viewBox="0 0 505 381" fill="none" xmlns="http://www.w3.org/2000/svg">
<g filter="url(#filter0_b_0_2929)">
<g clip-path="url(#clip0_0_2929)">
<rect x="-1.52588e-05" y="94.3918" width="454" height="293" rx="22" transform="rotate(-12 -1.52588e-05 94.3918)" fill="#F2F3F8"/>
<g opacity="0.44">
<path d="M64.9584 111.108C66.3705 111.364 67.218 112.157 67.5007 113.487C67.7103 114.473 67.497 115.393 66.8609 116.248C66.2214 117.088 65.1817 117.66 63.7419 117.966C61.3943 118.465 59.6219 117.861 58.4245 116.152L59.9237 114.779C60.6503 115.965 61.7962 116.393 63.3612 116.06C64.1437 115.894 64.7113 115.601 65.064 115.183C65.429 114.745 65.555 114.26 65.4419 113.728C65.3421 113.259 65.0806 112.914 64.6575 112.693C64.2499 112.469 63.7488 112.42 63.1541 112.546L61.4404 112.91L61.0462 111.056L62.3139 110.786C62.9086 110.66 63.3403 110.421 63.6091 110.069C63.8746 109.702 63.9541 109.268 63.8476 108.767C63.7412 108.267 63.4591 107.901 63.0013 107.671C62.5591 107.438 62.0016 107.393 61.3286 107.536C60.014 107.816 59.24 108.561 59.0067 109.772L57.1353 109.164C57.5989 107.266 58.8636 106.097 60.9294 105.658C62.2127 105.385 63.292 105.499 64.1673 106C65.0583 106.498 65.6052 107.224 65.8081 108.179C66.0609 109.368 65.7777 110.345 64.9584 111.108ZM76.6822 102.629L78.7246 102.195L81.2195 113.932L79.1771 114.367L78.748 112.348C78.06 114.113 76.7458 115.202 74.8051 115.615C73.1618 115.964 71.6347 115.667 70.2238 114.724C68.8095 113.765 67.9194 112.425 67.5535 110.703C67.1875 108.982 67.4572 107.403 68.3625 105.967C69.2645 104.516 70.5371 103.616 72.1804 103.267C74.1211 102.854 75.7647 103.315 77.1113 104.648L76.6822 102.629ZM74.6442 113.588C75.8336 113.335 76.7426 112.725 77.3711 111.757C77.9963 110.774 78.1825 109.687 77.9296 108.498C77.6768 107.308 77.0665 106.399 76.0987 105.771C75.1275 105.127 74.0472 104.931 72.8578 105.184C71.684 105.433 70.7846 106.05 70.1594 107.033C69.5309 108.001 69.343 109.08 69.5958 110.269C69.8487 111.459 70.4606 112.375 71.4318 113.019C72.3996 113.648 73.4704 113.837 74.6442 113.588ZM92.6177 99.2416L95.1126 110.979L93.1172 111.404L91.3059 102.882L88.8507 109.685L88.5924 109.74L83.5824 104.524L85.3937 113.045L83.3748 113.474L80.8799 101.737L83.0631 101.272L88.0112 106.428L90.4344 99.7057L92.6177 99.2416ZM97.6756 105.282C98.1019 106.287 98.7522 107 99.6265 107.419C100.516 107.835 101.517 107.925 102.628 107.689C104.178 107.36 105.183 106.549 105.644 105.257L107.591 105.873C106.825 107.885 105.291 109.135 102.99 109.624C101.128 110.02 99.4869 109.763 98.0669 108.855C96.6593 107.927 95.7659 106.571 95.3866 104.787C95.0107 103.019 95.2693 101.426 96.1623 100.009C97.0552 98.5928 98.4095 97.6915 100.225 97.3057C101.946 96.9397 103.477 97.2524 104.816 98.2436C106.168 99.2158 107.025 100.555 107.388 102.261C107.451 102.558 107.492 102.868 107.512 103.191L97.6756 105.282ZM100.634 99.2307C99.5385 99.4635 98.6974 99.9695 98.1105 100.748C97.5203 101.512 97.2489 102.428 97.2963 103.498L105.137 101.831C104.729 100.757 104.111 100.005 103.284 99.5753C102.456 99.1459 101.573 99.0311 100.634 99.2307ZM115.818 94.3102L116.237 96.2821L112.247 97.1304L114.322 106.896L112.28 107.33L110.204 97.5645L106.19 98.4178L105.771 96.4458L115.818 94.3102ZM129.094 103.756L126.559 104.295L120.024 99.8693L121.206 105.433L119.164 105.867L116.669 94.1293L118.711 93.6952L119.814 98.8833L123.782 92.6174L126.411 92.0585L122.008 98.9322L129.094 103.756ZM136.201 89.9777L138.243 89.5436L140.738 101.281L138.696 101.715L138.267 99.6966C137.579 101.462 136.265 102.551 134.324 102.964C132.681 103.313 131.153 103.016 129.743 102.073C128.328 101.114 127.438 99.7736 127.072 98.0521C126.706 96.3306 126.976 94.752 127.881 93.3164C128.783 91.8652 130.056 90.9649 131.699 90.6156C133.64 90.2031 135.283 90.6634 136.63 91.9966L136.201 89.9777ZM134.163 100.937C135.352 100.684 136.261 100.074 136.89 99.1059C137.515 98.1225 137.701 97.036 137.448 95.8466C137.196 94.6571 136.585 93.7482 135.617 93.1197C134.646 92.4755 133.566 92.2798 132.377 92.5326C131.203 92.7821 130.303 93.3986 129.678 94.3821C129.05 95.3499 128.862 96.4286 129.115 97.618C129.367 98.8074 129.979 99.7242 130.951 100.368C131.918 100.997 132.989 101.186 134.163 100.937Z" fill="#142251"/>
<g clip-path="url(#clip1_0_2929)">
<path d="M39.1739 108.123C38.3458 107.533 37.1222 107.746 36.4849 108.727L30.246 118.334C30.0847 118.582 30.1402 118.843 30.3886 119.005C30.6371 119.166 30.8981 119.111 31.0594 118.862L36.22 110.916C36.5208 110.452 37.1401 110.321 37.6033 110.622C38.0665 110.922 38.1981 111.542 37.8973 112.005L32.7368 119.951C31.9738 121.126 30.4742 121.445 29.2993 120.682C28.1245 119.919 27.8058 118.419 28.5687 117.245L34.8076 107.638C36.015 105.778 38.496 105.199 40.3172 106.482C42.1616 107.694 42.7334 110.164 41.4554 111.979L34.1491 123.229C32.4619 125.827 29.1038 126.541 26.5057 124.854C23.9076 123.167 23.1938 119.809 24.881 117.211L31.1199 107.604C31.4207 107.14 32.0401 107.009 32.5032 107.309C32.9664 107.61 33.0981 108.23 32.7973 108.693L26.5584 118.3C25.4727 119.972 25.9233 122.091 27.595 123.177C29.2667 124.262 31.3862 123.812 32.4718 122.14L39.789 110.873C39.7969 110.86 39.8051 110.848 39.8135 110.837C40.404 110.008 40.1911 108.785 39.2099 108.148C39.1977 108.14 39.1857 108.132 39.1739 108.123Z" fill="#142251"/>
</g>
<path d="M414.118 28.1367C414.419 27.6735 415.038 27.5419 415.501 27.8427L421.779 31.9195L425.856 25.6418C426.156 25.1786 426.776 25.047 427.239 25.3478C427.702 25.6486 427.834 26.2679 427.533 26.7311L423.456 33.0088L429.734 37.0855C430.197 37.3863 430.329 38.0057 430.028 38.4688C429.727 38.932 429.108 39.0637 428.645 38.7629L422.367 34.6861L418.29 40.9638C417.989 41.427 417.37 41.5586 416.907 41.2578C416.444 40.957 416.312 40.3377 416.613 39.8745L420.689 33.5968L414.412 29.52C413.949 29.2192 413.817 28.5999 414.118 28.1367Z" fill="#142251"/>
<g clip-path="url(#clip2_0_2929)">
<path d="M369.684 35.5367C369.985 35.0735 370.604 34.9418 371.068 35.2426L374.626 37.5533C375.089 37.8541 375.221 38.4735 374.92 38.9366L367.988 49.6112C367.843 49.8336 367.616 49.9895 367.357 50.0447L364.423 50.6684C363.882 50.7833 363.351 50.4384 363.237 49.8982L362.613 46.9637C362.558 46.7043 362.608 46.4336 362.752 46.2112L369.684 35.5367ZM364.655 46.9531L364.985 48.5042L366.536 48.1745L372.698 38.686L370.817 37.4646L364.655 46.9531ZM357.453 41.9265C357.223 40.8461 357.913 39.784 358.993 39.5544L363.884 38.5148C364.424 38.4 364.955 38.7448 365.07 39.2851C365.185 39.8253 364.84 40.3563 364.3 40.4711L359.409 41.5107L361.904 53.2485L373.642 50.7535L372.602 45.8628C372.487 45.3226 372.832 44.7915 373.372 44.6767C373.913 44.5619 374.444 44.9067 374.558 45.447L375.598 50.3377C375.828 51.4181 375.138 52.4802 374.058 52.7098L362.32 55.2047C361.239 55.4344 360.177 54.7447 359.948 53.6643L357.453 41.9265Z" fill="#142251"/>
</g>
</g>
<path d="M463.864 269.803C463.401 269.502 463.27 268.883 463.57 268.42L471.195 256.678C471.496 256.215 472.115 256.084 472.579 256.384C473.042 256.685 473.173 257.305 472.873 257.768L465.248 269.509C464.947 269.972 464.328 270.104 463.864 269.803ZM469.147 270.849C468.684 270.548 468.552 269.929 468.853 269.466L474.299 261.079C474.6 260.616 475.22 260.484 475.683 260.785C476.146 261.086 476.278 261.705 475.977 262.168L470.53 270.555C470.23 271.018 469.61 271.15 469.147 270.849ZM474.43 271.895C473.967 271.594 473.835 270.975 474.136 270.512L477.403 265.48C477.704 265.016 478.324 264.885 478.787 265.186C479.25 265.486 479.382 266.106 479.081 266.569L475.813 271.601C475.512 272.064 474.893 272.196 474.43 271.895Z" fill="#142251" fill-opacity="0.44"/>
<rect x="11.6426" y="149.168" width="454" height="1" transform="rotate(-12 11.6426 149.168)" fill="#E4E7F1"/>
<path d="M261.914 194.328C267.681 206.236 262.852 222.048 250.046 238.082C237.265 254.084 216.646 270.154 191.21 282.474C165.774 294.793 140.381 301.007 119.902 301.114C99.3821 301.221 83.9814 295.207 78.2142 283.299C72.4469 271.391 77.2761 255.579 90.0824 239.545C102.863 223.543 123.482 207.473 148.918 195.153C174.354 182.834 199.747 176.62 220.226 176.513C240.746 176.406 256.147 182.42 261.914 194.328Z" stroke="#C3C7CF"/>
</g>
</g>
<defs>
<filter id="filter0_b_0_2929" x="-40" y="-40" width="584.997" height="460.989" filterUnits="userSpaceOnUse" color-interpolation-filters="sRGB">
<feFlood flood-opacity="0" result="BackgroundImageFix"/>
<feGaussianBlur in="BackgroundImage" stdDeviation="20"/>
<feComposite in2="SourceAlpha" operator="in" result="effect1_backgroundBlur_0_2929"/>
<feBlend mode="normal" in="SourceGraphic" in2="effect1_backgroundBlur_0_2929" result="shape"/>
</filter>
<clipPath id="clip0_0_2929">
<rect x="-1.52588e-05" y="94.3918" width="454" height="293" rx="22" transform="rotate(-12 -1.52588e-05 94.3918)" fill="white"/>
</clipPath>
<clipPath id="clip1_0_2929">
<rect width="24" height="24" fill="white" transform="translate(18.977 106.716) rotate(-12)"/>
</clipPath>
<clipPath id="clip2_0_2929">
<rect width="24" height="24" fill="white" transform="translate(353.063 35.7031) rotate(-12)"/>
</clipPath>
</defs>
</svg>
