<svg width="176" height="176" viewBox="0 0 176 176" fill="none" xmlns="http://www.w3.org/2000/svg">
<rect x="20" y="20" width="136" height="136" rx="40" fill="#F2F3F8"/>
<path fill-rule="evenodd" clip-rule="evenodd" d="M82 70C78.6863 70 76 72.6863 76 76V78L72 78.0001C69.7909 78.0001 68 79.7909 68 82V102C68 104.209 69.7909 106 72 106H104C106.209 106 108 104.209 108 102V82C108 79.7909 106.209 78 104 78H100V76C100 72.6863 97.3137 70 94 70H82ZM96 78V76C96 74.8954 95.1046 74 94 74H82C80.8954 74 80 74.8954 80 76V78L96 78ZM72 82V86H104V82H72ZM104 90H93.6586C92.8349 92.3304 90.6124 94 88 94C85.3876 94 83.1651 92.3304 82.3414 90H72V102H104V90Z" fill="#142251"/>
</svg>
