<svg width="176" height="176" viewBox="0 0 176 176" fill="none" xmlns="http://www.w3.org/2000/svg">
<rect x="20" y="20" width="136" height="136" rx="40" fill="#F2F3F8"/>
<path d="M88 69C88.7575 69 89.4501 69.428 89.7888 70.1056L94.9467 80.4212L106.288 82.0708C107.041 82.1804 107.667 82.708 107.902 83.432C108.137 84.1559 107.941 84.9506 107.396 85.482L99.1419 93.5299L100.999 104.877C101.121 105.627 100.809 106.382 100.191 106.825C99.5739 107.268 98.7588 107.323 98.0876 106.967L88 101.614L77.9124 106.967C77.2412 107.323 76.4261 107.268 75.8087 106.825C75.1914 106.382 74.8785 105.627 75.0012 104.877L76.858 93.5299L68.6038 85.482C68.0588 84.9506 67.8627 84.1559 68.0979 83.432C68.3331 82.708 68.9589 82.1804 69.7121 82.0708L81.0533 80.4212L86.2111 70.1056C86.5499 69.428 87.2425 69 88 69ZM88 75.4721L84.1638 83.1444C83.8712 83.7298 83.3106 84.135 82.6629 84.2292L74.2968 85.4461L80.3962 91.393C80.8636 91.8487 81.0792 92.5038 80.9737 93.148L79.6 101.543L87.0626 97.5833C87.6488 97.2722 88.3512 97.2722 88.9374 97.5833L96.4 101.543L95.0262 93.148C94.9208 92.5038 95.1364 91.8487 95.6038 91.393L101.703 85.4461L93.3371 84.2292C92.6894 84.135 92.1288 83.7298 91.8361 83.1444L88 75.4721Z" fill="#142251"/>
</svg>
