<svg width="176" height="176" viewBox="0 0 176 176" fill="none" xmlns="http://www.w3.org/2000/svg">
<rect x="20" y="20" width="136" height="136" rx="40" fill="#F2F3F8"/>
<path d="M88 72C83.5817 72 80 75.5817 80 80C80 84.4183 83.5817 88 88 88C92.4183 88 96 84.4183 96 80C96 75.5817 92.4183 72 88 72ZM76 80C76 73.3726 81.3726 68 88 68C94.6274 68 100 73.3726 100 80C100 86.6274 94.6274 92 88 92C81.3726 92 76 86.6274 76 80ZM80 100C76.6863 100 74 102.686 74 106C74 107.105 73.1046 108 72 108C70.8954 108 70 107.105 70 106C70 100.477 74.4772 96 80 96H96C101.523 96 106 100.477 106 106C106 107.105 105.105 108 104 108C102.895 108 102 107.105 102 106C102 102.686 99.3137 100 96 100H80Z" fill="#142251"/>
</svg>
