<svg width="176" height="176" viewBox="0 0 176 176" fill="none" xmlns="http://www.w3.org/2000/svg">
<rect x="20" y="20" width="136" height="136" rx="40" fill="#F2F3F8"/>
<path d="M99.0039 68.2702C99.6205 68.628 100 69.2871 100 70V78C102.37 78 104.5 79.0327 105.962 80.6662C107.228 82.0802 108 83.9523 108 86C108 88.0477 107.228 89.9198 105.962 91.3338C104.5 92.9673 102.37 94 100 94V102C100 102.713 99.6205 103.372 99.0039 103.73C98.3872 104.088 97.6267 104.09 97.0077 103.736L84 96.3035V106C84 107.105 83.1046 108 82 108H74C72.8954 108 72 107.105 72 106V96C69.7909 96 68 94.2091 68 92V80C68 77.7909 69.7909 76 72 76H83.4689L97.0077 68.2635C97.6267 67.9098 98.3872 67.9123 99.0039 68.2702ZM84 92C84.3481 92 84.6901 92.0908 84.9923 92.2635L96 98.5536V73.4464L84.9923 79.7365C84.6901 79.9092 84.3481 80 84 80H72V92H84ZM76 96V104H80V96H76ZM100 90C101.184 90 102.247 89.4877 102.982 88.6662C103.617 87.9572 104 87.0258 104 86C104 84.9742 103.617 84.0428 102.982 83.3338C102.247 82.5123 101.184 82 100 82V90Z" fill="#142251"/>
</svg>
