<svg width="176" height="176" viewBox="0 0 176 176" fill="none" xmlns="http://www.w3.org/2000/svg">
<path d="M88 72C79.1634 72 72 79.1634 72 88C72 96.8366 79.1634 104 88 104C96.8366 104 104 96.8366 104 88C104 79.1634 96.8366 72 88 72ZM68 88C68 76.9543 76.9543 68 88 68C99.0457 68 108 76.9543 108 88C108 99.0457 99.0457 108 88 108C76.9543 108 68 99.0457 68 88ZM79.5858 79.5858C80.3668 78.8047 81.6332 78.8047 82.4142 79.5858L88 85.1716L93.5858 79.5858C94.3668 78.8047 95.6332 78.8047 96.4142 79.5858C97.1953 80.3668 97.1953 81.6332 96.4142 82.4142L90.8284 88L96.4142 93.5858C97.1953 94.3668 97.1953 95.6332 96.4142 96.4142C95.6332 97.1953 94.3668 97.1953 93.5858 96.4142L88 90.8284L82.4142 96.4142C81.6332 97.1953 80.3668 97.1953 79.5858 96.4142C78.8047 95.6332 78.8047 94.3668 79.5858 93.5858L85.1716 88L79.5858 82.4142C78.8047 81.6332 78.8047 80.3668 79.5858 79.5858Z" fill="#989EB1"/>
</svg>
