<svg width="64" height="64" viewBox="0 0 64 64" fill="none" xmlns="http://www.w3.org/2000/svg">
<path d="M32 10.6668C20.2179 10.6668 10.6666 20.2181 10.6666 32.0002C10.6666 43.7822 20.2179 53.3335 32 53.3335C43.7821 53.3335 53.3333 43.7822 53.3333 32.0002C53.3333 20.2181 43.7821 10.6668 32 10.6668ZM5.33331 32.0002C5.33331 17.2726 17.2724 5.3335 32 5.3335C46.7276 5.3335 58.6666 17.2726 58.6666 32.0002C58.6666 46.7278 46.7276 58.6668 32 58.6668C17.2724 58.6668 5.33331 46.7278 5.33331 32.0002ZM44.4383 23.3404C45.539 24.3189 45.6382 26.0044 44.6597 27.1051L30.4375 43.1051C29.9315 43.6744 29.2061 44.0002 28.4444 44.0002C27.6827 44.0002 26.9574 43.6744 26.4513 43.1051L19.3402 35.1051C18.3618 34.0044 18.4609 32.3189 19.5617 31.3404C20.6624 30.362 22.348 30.4611 23.3264 31.5619L28.4444 37.3196L40.6736 23.5619C41.652 22.4611 43.3375 22.362 44.4383 23.3404Z" fill="#213887"/>
</svg>
