<svg width="54" height="54" viewBox="0 0 54 54" fill="none" xmlns="http://www.w3.org/2000/svg">
<circle cx="27" cy="27" r="27" fill="#F2F3F8"/>
<path d="M27 19C27.2652 19 27.5196 19.1054 27.7071 19.2929L33.7071 25.2929C34.0976 25.6834 34.0976 26.3166 33.7071 26.7071C33.3166 27.0976 32.6834 27.0976 32.2929 26.7071L28 22.4142L28 34C28 34.5523 27.5523 35 27 35C26.4477 35 26 34.5523 26 34L26 22.4142L21.7071 26.7071C21.3166 27.0976 20.6834 27.0976 20.2929 26.7071C19.9024 26.3166 19.9024 25.6834 20.2929 25.2929L26.2929 19.2929C26.4804 19.1054 26.7348 19 27 19Z" fill="#142251"/>
</svg>
